<svg viewBox="0 0 1441 400" xmlns="http://www.w3.org/2000/svg"><g><g><g><g><g><line x1="80" y1="378" x2="75" y2="378" style="visibility: inherit;" fill="rgb(0, 0, 0)" stroke="rgb(204, 204, 204)" stroke-width="1px"></line><line x1="80" y1="336" x2="75" y2="336" style="visibility: inherit;" fill="rgb(0, 0, 0)" stroke="rgb(204, 204, 204)" stroke-width="1px"></line><line x1="80" y1="294" x2="75" y2="294" style="visibility: inherit;" fill="rgb(0, 0, 0)" stroke="rgb(204, 204, 204)" stroke-width="1px"></line><line x1="80" y1="252.00000000000003" x2="75" y2="252.00000000000003" style="visibility: inherit;" fill="rgb(0, 0, 0)" stroke="rgb(204, 204, 204)" stroke-width="1px"></line><line x1="80" y1="210" x2="75" y2="210" style="visibility: inherit;" fill="rgb(0, 0, 0)" stroke="rgb(204, 204, 204)" stroke-width="1px"></line><line x1="80" y1="168" x2="75" y2="168" style="visibility: inherit;" fill="rgb(0, 0, 0)" stroke="rgb(204, 204, 204)" stroke-width="1px"></line><line x1="80" y1="126.00000000000001" x2="75" y2="126.00000000000001" style="visibility: inherit;" fill="rgb(0, 0, 0)" stroke="rgb(204, 204, 204)" stroke-width="1px"></line><line x1="80" y1="84" x2="75" y2="84" style="visibility: inherit;" fill="rgb(0, 0, 0)" stroke="rgb(204, 204, 204)" stroke-width="1px"></line><line x1="80" y1="42.00000000000002" x2="75" y2="42.00000000000002" style="visibility: inherit;" fill="rgb(0, 0, 0)" stroke="rgb(204, 204, 204)" stroke-width="1px"></line><line x1="80" y1="0" x2="75" y2="0" style="visibility: inherit;" fill="rgb(0, 0, 0)" stroke="rgb(204, 204, 204)" stroke-width="1px"></line></g><g transform="translate(70, 0)"><text x="0" y="378" dx="0em" dy="0.3em" style="text-anchor: end; visibility: hidden; font-family: Roboto, sans-serif; font-size: 12px; font-weight: 200;" fill="rgb(50, 49, 63)" stroke="none" stroke-width="1px">-1.6e+3</text><text x="0" y="336" dx="0em" dy="0.3em" style="text-anchor: end; visibility: inherit; font-family: Roboto, sans-serif; font-size: 12px; font-weight: 200;" fill="rgb(50, 49, 63)" stroke="none" stroke-width="1px">-1.4e+3</text><text x="0" y="294" dx="0em" dy="0.3em" style="text-anchor: end; visibility: inherit; font-family: Roboto, sans-serif; font-size: 12px; font-weight: 200;" fill="rgb(50, 49, 63)" stroke="none" stroke-width="1px">-1.2e+3</text><text x="0" y="252.00000000000003" dx="0em" dy="0.3em" style="text-anchor: end; visibility: inherit; font-family: Roboto, sans-serif; font-size: 12px; font-weight: 200;" fill="rgb(50, 49, 63)" stroke="none" stroke-width="1px">-1e+3</text><text x="0" y="210" dx="0em" dy="0.3em" style="text-anchor: end; visibility: inherit; font-family: Roboto, sans-serif; font-size: 12px; font-weight: 200;" fill="rgb(50, 49, 63)" stroke="none" stroke-width="1px">-800</text><text x="0" y="168" dx="0em" dy="0.3em" style="text-anchor: end; visibility: inherit; font-family: Roboto, sans-serif; font-size: 12px; font-weight: 200;" fill="rgb(50, 49, 63)" stroke="none" stroke-width="1px">-600</text><text x="0" y="126.00000000000001" dx="0em" dy="0.3em" style="text-anchor: end; visibility: inherit; font-family: Roboto, sans-serif; font-size: 12px; font-weight: 200;" fill="rgb(50, 49, 63)" stroke="none" stroke-width="1px">-400</text><text x="0" y="84" dx="0em" dy="0.3em" style="text-anchor: end; visibility: inherit; font-family: Roboto, sans-serif; font-size: 12px; font-weight: 200;" fill="rgb(50, 49, 63)" stroke="none" stroke-width="1px">-200</text><text x="0" y="42.00000000000002" dx="0em" dy="0.3em" style="text-anchor: end; visibility: inherit; font-family: Roboto, sans-serif; font-size: 12px; font-weight: 200;" fill="rgb(50, 49, 63)" stroke="none" stroke-width="1px">0</text><text x="0" y="0" dx="0em" dy="0.3em" style="text-anchor: end; visibility: hidden; font-family: Roboto, sans-serif; font-size: 12px; font-weight: 200;" fill="rgb(50, 49, 63)" stroke="none" stroke-width="1px">200</text></g><line x1="80" y1="0" x2="80" y2="378" fill="rgb(0, 0, 0)" stroke="rgb(204, 204, 204)" stroke-width="1px"></line></g></g><g transform="translate(80, 0)" clip-path="url(#clip_0)"><clipPath id="clip_0"><rect width="1361" height="378"></rect></clipPath><g><g><g><line x1="0" y1="0" x2="0" y2="378" fill="rgb(0, 0, 0)" stroke="rgb(60, 60, 60)" stroke-width="1px" opacity="0.25"></line><line x1="136.1" y1="0" x2="136.1" y2="378" fill="rgb(0, 0, 0)" stroke="rgb(60, 60, 60)" stroke-width="1px" opacity="0.25"></line><line x1="272.2" y1="0" x2="272.2" y2="378" fill="rgb(0, 0, 0)" stroke="rgb(60, 60, 60)" stroke-width="1px" opacity="0.25"></line><line x1="408.3" y1="0" x2="408.3" y2="378" fill="rgb(0, 0, 0)" stroke="rgb(60, 60, 60)" stroke-width="1px" opacity="0.25"></line><line x1="544.4" y1="0" x2="544.4" y2="378" fill="rgb(0, 0, 0)" stroke="rgb(60, 60, 60)" stroke-width="1px" opacity="0.25"></line><line x1="680.5" y1="0" x2="680.5" y2="378" fill="rgb(0, 0, 0)" stroke="rgb(60, 60, 60)" stroke-width="1px" opacity="0.25"></line><line x1="816.6" y1="0" x2="816.6" y2="378" fill="rgb(0, 0, 0)" stroke="rgb(60, 60, 60)" stroke-width="1px" opacity="0.25"></line><line x1="952.6999999999999" y1="0" x2="952.6999999999999" y2="378" fill="rgb(0, 0, 0)" stroke="rgb(60, 60, 60)" stroke-width="1px" opacity="0.25"></line><line x1="1088.8" y1="0" x2="1088.8" y2="378" fill="rgb(0, 0, 0)" stroke="rgb(60, 60, 60)" stroke-width="1px" opacity="0.25"></line><line x1="1224.9" y1="0" x2="1224.9" y2="378" fill="rgb(0, 0, 0)" stroke="rgb(60, 60, 60)" stroke-width="1px" opacity="0.25"></line><line x1="1361" y1="0" x2="1361" y2="378" fill="rgb(0, 0, 0)" stroke="rgb(60, 60, 60)" stroke-width="1px" opacity="0.25"></line></g><g><line x1="0" y1="378" x2="1361" y2="378" fill="rgb(0, 0, 0)" stroke="rgb(60, 60, 60)" stroke-width="1px" opacity="0.25"></line><line x1="0" y1="336" x2="1361" y2="336" fill="rgb(0, 0, 0)" stroke="rgb(60, 60, 60)" stroke-width="1px" opacity="0.25"></line><line x1="0" y1="294" x2="1361" y2="294" fill="rgb(0, 0, 0)" stroke="rgb(60, 60, 60)" stroke-width="1px" opacity="0.25"></line><line x1="0" y1="252.00000000000003" x2="1361" y2="252.00000000000003" fill="rgb(0, 0, 0)" stroke="rgb(60, 60, 60)" stroke-width="1px" opacity="0.25"></line><line x1="0" y1="210" x2="1361" y2="210" fill="rgb(0, 0, 0)" stroke="rgb(60, 60, 60)" stroke-width="1px" opacity="0.25"></line><line x1="0" y1="168" x2="1361" y2="168" fill="rgb(0, 0, 0)" stroke="rgb(60, 60, 60)" stroke-width="1px" opacity="0.25"></line><line x1="0" y1="126.00000000000001" x2="1361" y2="126.00000000000001" fill="rgb(0, 0, 0)" stroke="rgb(60, 60, 60)" stroke-width="1px" opacity="0.25"></line><line x1="0" y1="84" x2="1361" y2="84" fill="rgb(0, 0, 0)" stroke="rgb(60, 60, 60)" stroke-width="1px" opacity="0.25"></line><line x1="0" y1="42.00000000000002" x2="1361" y2="42.00000000000002" fill="rgb(0, 0, 0)" stroke="rgb(60, 60, 60)" stroke-width="1px" opacity="0.25"></line><line x1="0" y1="0" x2="1361" y2="0" fill="rgb(0, 0, 0)" stroke="rgb(60, 60, 60)" stroke-width="1px" opacity="0.25"></line></g></g></g><g><g><line x1="0" y1="42.00000000000002" x2="1361" y2="42.00000000000002" fill="rgb(0, 0, 0)" stroke="rgb(153, 153, 153)" stroke-width="1.5px"></line></g></g><g><g><line x1="136.1" y1="0" x2="136.1" y2="378" fill="rgb(0, 0, 0)" stroke="rgb(153, 153, 153)" stroke-width="1.5px"></line></g></g><g><g><g><g><g><path style="fill: none;" stroke="rgb(0, 153, 136)" stroke-width="2px" d="M136.1,394.2934826660157L142.905,334.9870935058594L149.71,270.6802075195313L156.51500000000001,402.525087890625L163.32,241.30771362304685L170.125,346.16485107421875L176.93,345.604833984375L183.735,293.355439453125L190.54000000000002,367.36295654296873L197.345,322.02128540039064L204.15,319.77629516601564L210.955,265.2286157226563L217.76,222.30341857910153L224.565,266.09132812499996L231.37,300.54173583984374L238.17499999999998,376.64263916015625L244.98,287.03885375976563L251.785,244.32979614257812L258.59,245.75133361816407L265.395,321.00279052734373L272.2,235.43786499023437L279.005,388.02788452148434L285.81,365.95094238281246L292.615,228.4048132324219L299.42,200.33543701171874L306.225,363.1826440429687L313.03000000000003,299.9529309082031L319.835,361.0401928710937L326.64,152.44710571289062L333.445,92.1600682067871L340.25,68.90317062377929L347.055,244.83037902832032L353.86,71.11777725219727L360.665,69.66921112060547L367.47,45.57174516677855L374.27500000000003,71.441220703125L381.08000000000004,115.11970825195313L387.885,70.43253112792969L394.69,123.3783773803711L401.495,96.02357666015625L408.3,68.66108711242676L415.105,71.2060890197754L421.91,91.11965560913086L428.715,96.64034271240236L435.52,69.6808204650879L442.325,91.31007705688477L449.13,96.44627471923829L455.935,70.77120483398437L462.74,44.48129550933836L469.54499999999996,70.43265609741212L476.34999999999997,94.5032588195801L483.155,93.54190704345703L489.96,92.91394500732424L496.765,69.92328048706057L503.57,69.90175369262694L510.375,44.44670599937437L517.18,92.22769271850585L523.985,69.56403488159178L530.79,93.28401168823241L537.595,68.8250150299072L544.4,67.40141235351562L551.205,43.573317117691055L558.01,109.3980157470703L564.8149999999999,67.78121543884278L571.62,68.57547821044923L578.425,68.7414168548584L585.23,91.72555892944334L592.035,68.27822067260743L598.84,124.34235351562499L605.645,69.57453552246092L612.45,67.20278137207032L619.255,68.68805328369143L626.0600000000001,108.948369140625L632.865,115.29330688476564L639.67,69.82891891479494L646.475,67.41010093688966L653.28,67.73742324829104L660.085,95.94821685791014L666.89,69.87826904296875L673.695,105.41596893310546L680.5,67.2850978088379L687.305,89.69351989746093L694.11,67.58868553161619L700.915,70.84213943481444L707.72,92.95201583862305L714.525,69.19810501098634L721.33,69.64635772705076L728.135,67.04940055847169L734.94,45.35592126846311L741.745,69.69758560180662L748.5500000000001,42.03232841536404L755.355,120.22566009521483L762.1600000000001,69.11912109375L768.9649999999999,69.27025405883789L775.77,91.45947647094725L782.5749999999999,94.9587437438965L789.38,95.01813308715819L796.185,117.4042529296875L802.99,92.16183700561521L809.795,68.99318069458009L816.6,70.8010789489746L823.405,68.88802047729493L830.21,67.64239036560059L837.015,124.31987823486327L843.82,111.75958648681642L850.625,70.75120971679686L857.43,66.58491302490233L864.235,45.4247301864624L871.04,66.73830184936524L877.845,67.91060211181639L884.65,67.50837181091309L891.455,67.95112266540526L898.26,69.26720993041994L905.065,42.23303511500357L911.87,68.67312103271483L918.6750000000001,67.43145950317383L925.48,89.77170593261718L932.2850000000001,117.88564178466795L939.0899999999999,113.57217590332031L945.895,92.2327555847168L952.6999999999999,68.14135665893554L959.505,66.74042152404786L966.31,67.33077415466309L973.115,67.10727745056153L979.92,67.1605224609375L986.725,42.221666622161855L993.53,42.16201685070991L1000.335,93.47108459472655L1007.14,66.94594985961913L1013.945,90.09659454345702L1020.75,66.85063179016113L1027.555,42.12377013087274L1034.36,66.98877113342287L1041.165,88.91577713012694L1047.97,67.99212547302247L1054.775,68.56673995971681L1061.58,69.27282714843749L1068.385,66.75669158935547L1075.19,42.12073168516161L1081.9950000000001,67.55459770202637L1088.8,92.83792190551756L1095.605,66.55665710449219L1102.41,66.08634567260744L1109.215,93.13870742797852L1116.02,110.090654296875L1122.825,68.63947380065919L1129.6299999999999,42.23634615540502L1136.435,90.1592010498047L1143.24,67.94083671569824L1150.045,68.58588912963869L1156.85,42.5838723421097L1163.655,66.92963012695314L1170.46,67.91846717834471L1177.265,42.66521470785141L1184.07,66.47920486450194L1190.875,66.12714340209962L1197.68,68.73736656188964L1204.485,91.67364212036132L1211.29,93.21032135009766L1218.095,66.04614234924317L1224.9,42.21740649461747L1231.705,90.60599899291992L1238.51,66.83663520812988L1245.315,66.840703125L1252.1200000000001,122.26461730957033L1258.925,67.66520530700684L1265.73,67.6500407409668L1272.535,67.47069030761719L1279.34,117.02800506591798" fill="none"></path></g></g></g></g></g></g><g transform="translate(80, 378)" clip-path="url(#clip_1)"><clipPath id="clip_1"><rect width="1361" height="22"></rect></clipPath><g><g><line x1="0" y1="0" x2="0" y2="5" style="visibility: inherit;" fill="rgb(0, 0, 0)" stroke="rgb(204, 204, 204)" stroke-width="1px"></line><line x1="136.1" y1="0" x2="136.1" y2="5" style="visibility: inherit;" fill="rgb(0, 0, 0)" stroke="rgb(204, 204, 204)" stroke-width="1px"></line><line x1="272.2" y1="0" x2="272.2" y2="5" style="visibility: inherit;" fill="rgb(0, 0, 0)" stroke="rgb(204, 204, 204)" stroke-width="1px"></line><line x1="408.3" y1="0" x2="408.3" y2="5" style="visibility: inherit;" fill="rgb(0, 0, 0)" stroke="rgb(204, 204, 204)" stroke-width="1px"></line><line x1="544.4" y1="0" x2="544.4" y2="5" style="visibility: inherit;" fill="rgb(0, 0, 0)" stroke="rgb(204, 204, 204)" stroke-width="1px"></line><line x1="680.5" y1="0" x2="680.5" y2="5" style="visibility: inherit;" fill="rgb(0, 0, 0)" stroke="rgb(204, 204, 204)" stroke-width="1px"></line><line x1="816.6" y1="0" x2="816.6" y2="5" style="visibility: inherit;" fill="rgb(0, 0, 0)" stroke="rgb(204, 204, 204)" stroke-width="1px"></line><line x1="952.6999999999999" y1="0" x2="952.6999999999999" y2="5" style="visibility: inherit;" fill="rgb(0, 0, 0)" stroke="rgb(204, 204, 204)" stroke-width="1px"></line><line x1="1088.8" y1="0" x2="1088.8" y2="5" style="visibility: inherit;" fill="rgb(0, 0, 0)" stroke="rgb(204, 204, 204)" stroke-width="1px"></line><line x1="1224.9" y1="0" x2="1224.9" y2="5" style="visibility: inherit;" fill="rgb(0, 0, 0)" stroke="rgb(204, 204, 204)" stroke-width="1px"></line><line x1="1361" y1="0" x2="1361" y2="5" style="visibility: inherit;" fill="rgb(0, 0, 0)" stroke="rgb(204, 204, 204)" stroke-width="1px"></line></g><g transform="translate(0, 8)"><text x="0" y="0" dx="0em" dy="0.95em" style="text-anchor: middle; visibility: hidden; font-family: Roboto, sans-serif; font-size: 12px; font-weight: 200;" fill="rgb(50, 49, 63)" stroke="none" stroke-width="1px">-20</text><text x="136.1" y="0" dx="0em" dy="0.95em" style="text-anchor: middle; visibility: inherit; font-family: Roboto, sans-serif; font-size: 12px; font-weight: 200;" fill="rgb(50, 49, 63)" stroke="none" stroke-width="1px">0</text><text x="272.2" y="0" dx="0em" dy="0.95em" style="text-anchor: middle; visibility: inherit; font-family: Roboto, sans-serif; font-size: 12px; font-weight: 200;" fill="rgb(50, 49, 63)" stroke="none" stroke-width="1px">20</text><text x="408.3" y="0" dx="0em" dy="0.95em" style="text-anchor: middle; visibility: inherit; font-family: Roboto, sans-serif; font-size: 12px; font-weight: 200;" fill="rgb(50, 49, 63)" stroke="none" stroke-width="1px">40</text><text x="544.4" y="0" dx="0em" dy="0.95em" style="text-anchor: middle; visibility: inherit; font-family: Roboto, sans-serif; font-size: 12px; font-weight: 200;" fill="rgb(50, 49, 63)" stroke="none" stroke-width="1px">60</text><text x="680.5" y="0" dx="0em" dy="0.95em" style="text-anchor: middle; visibility: inherit; font-family: Roboto, sans-serif; font-size: 12px; font-weight: 200;" fill="rgb(50, 49, 63)" stroke="none" stroke-width="1px">80</text><text x="816.6" y="0" dx="0em" dy="0.95em" style="text-anchor: middle; visibility: inherit; font-family: Roboto, sans-serif; font-size: 12px; font-weight: 200;" fill="rgb(50, 49, 63)" stroke="none" stroke-width="1px">100</text><text x="952.6999999999999" y="0" dx="0em" dy="0.95em" style="text-anchor: middle; visibility: inherit; font-family: Roboto, sans-serif; font-size: 12px; font-weight: 200;" fill="rgb(50, 49, 63)" stroke="none" stroke-width="1px">120</text><text x="1088.8" y="0" dx="0em" dy="0.95em" style="text-anchor: middle; visibility: inherit; font-family: Roboto, sans-serif; font-size: 12px; font-weight: 200;" fill="rgb(50, 49, 63)" stroke="none" stroke-width="1px">140</text><text x="1224.9" y="0" dx="0em" dy="0.95em" style="text-anchor: middle; visibility: inherit; font-family: Roboto, sans-serif; font-size: 12px; font-weight: 200;" fill="rgb(50, 49, 63)" stroke="none" stroke-width="1px">160</text><text x="1361" y="0" dx="0em" dy="0.95em" style="text-anchor: middle; visibility: hidden; font-family: Roboto, sans-serif; font-size: 12px; font-weight: 200;" fill="rgb(50, 49, 63)" stroke="none" stroke-width="1px">180</text></g><line x1="0" y1="0" x2="1361" y2="0" fill="rgb(0, 0, 0)" stroke="rgb(204, 204, 204)" stroke-width="1px"></line></g></g></g></g></svg>